<svg width="1125" height="308" viewBox="0 0 1125 308" fill="none" xmlns="http://www.w3.org/2000/svg">
<path d="M257 58.5C257 90.8087 199.469 117 128.5 117C57.5314 117 0 90.8087 0 58.5C0 26.1913 57.5314 0 128.5 0C199.469 0 257 26.1913 257 58.5Z" fill="#9A3535"/>
<path d="M214 240.571C231.541 233.972 246.475 224.963 257 213.5V255C250.345 271.242 234.608 283.616 214 292.255V240.571Z" fill="#9A3535"/>
<path d="M47 241.1C28.1175 234.507 11.7809 225.457 0 214V254.5C5.07088 272.313 22.8888 285.764 47 294.652L47 241.1Z" fill="#9A3535"/>
<path d="M52 242.77L52 296.4C97.9131 311.62 163.674 311.322 209 294.243V242.364C162.583 258.207 99.9764 258.084 52 242.77Z" fill="#9A3535"/>
<path d="M0 150.5C25.8287 175.618 73.5562 189.169 122 190.62V243.898C64.8421 242.799 9.59617 224.71 0 191V150.5Z" fill="#9A3535"/>
<path d="M257 150C231.256 178.038 179.135 191.393 127 190.727V243.951C184.399 244.058 242.44 227.036 257 191.5V150Z" fill="#9A3535"/>
<path d="M0 86.5C11.7809 97.9566 28.1175 107.007 47 113.6L47 167.152C22.8888 158.264 5.07088 144.813 0 127V86.5Z" fill="#9A3535"/>
<path d="M209 114.864C162.583 130.707 99.9764 130.584 52 115.27L52 168.9C97.9131 184.12 163.674 183.822 209 166.743V114.864Z" fill="#9A3535"/>
<path d="M214 113.071C231.541 106.472 246.475 97.4629 257 86V127.5C250.345 143.742 234.608 156.116 214 164.755V113.071Z" fill="#9A3535"/>
<path d="M423.433 137.096C436.485 137.096 448.039 140.722 458.094 147.973C468.246 155.128 476.029 164.748 481.444 176.834C486.955 188.919 489.71 202.02 489.71 216.136C489.71 230.348 487.003 243.546 481.589 255.728C476.271 267.91 468.681 277.579 458.82 284.733C449.054 291.791 437.742 295.32 424.883 295.32C408.834 295.32 393.993 288.698 380.36 275.452V293H305.526V257.904H331.921V109.396H305.526V74.4447H380.36V158.125C392.639 144.106 406.997 137.096 423.433 137.096ZM410.091 257.613C419.372 257.613 426.624 253.794 431.845 246.156C437.162 238.422 439.821 228.173 439.821 215.411C439.821 202.745 437.162 193.125 431.845 186.55C426.624 179.879 419.469 176.544 410.381 176.544C400.905 176.544 393.461 180.314 388.046 187.856C382.729 195.397 380.07 205.404 380.07 217.876C380.07 229.575 382.777 239.147 388.191 246.591C393.702 253.939 401.002 257.613 410.091 257.613Z" fill="#9A3535"/>
<path d="M636.187 138.837V184.52C622.845 185.39 612.209 187.517 604.281 190.901C596.45 194.188 590.359 199.893 586.008 208.014C581.754 216.136 579.627 227.738 579.627 242.821V257.904H609.937V293H503.053V257.904H531.043V176.253H504.503V140.577H575.566V179.299C579.143 167.6 585.766 157.883 595.435 150.149C605.103 142.414 617.092 138.547 631.401 138.547C633.528 138.547 635.124 138.643 636.187 138.837Z" fill="#9A3535"/>
<path d="M728.279 97.2139C728.279 104.949 725.62 111.378 720.303 116.502C715.082 121.53 708.846 124.044 701.594 124.044C694.246 124.044 687.913 121.433 682.596 116.212C677.375 110.895 674.764 104.562 674.764 97.2139C674.764 89.9626 677.375 83.7264 682.596 78.5054C687.913 73.1878 694.246 70.529 701.594 70.529C708.846 70.529 715.082 73.1878 720.303 78.5054C725.62 83.7264 728.279 89.9626 728.279 97.2139ZM747.858 257.904V293H653.735V257.904H676.94V176.253H653.735V140.577H725.234V257.904H747.858Z" fill="#9A3535"/>
<path d="M886.068 153.339V140.577H919.279V202.358H884.908C876.787 185.535 864.411 177.124 847.781 177.124C837.629 177.124 829.218 180.846 822.547 188.291C815.972 195.735 812.685 205.017 812.685 216.136C812.685 228.415 815.827 238.518 822.112 246.446C828.493 254.278 836.953 258.194 847.491 258.194C855.129 258.194 862.381 256.067 869.245 251.812C876.11 247.558 881.717 241.564 886.068 233.829L923.775 250.507C915.46 266.17 905.454 277.772 893.755 285.314C882.056 292.855 866.296 296.626 846.476 296.626C820.758 296.626 800.357 289.616 785.275 275.597C770.289 261.481 762.796 241.951 762.796 217.006C762.796 202.117 766.228 188.726 773.092 176.834C780.054 164.941 789.432 155.611 801.228 148.843C813.023 141.979 825.931 138.547 839.95 138.547C855.999 138.547 871.372 143.477 886.068 153.339Z" fill="#9A3535"/>
<path d="M1029.06 259.499V293H937.553V257.904H961.917V109.396H937.553V74.4447H1010.65V259.499H1029.06ZM1030.51 140.577H1122.61V171.468H1107.52L1062.57 209.61L1103.32 257.904H1124.35V293H1075.91L1010.94 212.51L1062.57 170.017H1030.51V140.577Z" fill="#9A3535"/>
</svg>
