<svg width="550" height="151" viewBox="0 0 550 151" fill="none" xmlns="http://www.w3.org/2000/svg">
<path d="M125.644 28.6C125.644 44.3953 97.518 57.2 62.8222 57.2C28.1265 57.2 0 44.3953 0 28.6C0 12.8047 28.1265 0 62.8222 0C97.518 0 125.644 12.8047 125.644 28.6Z" fill="#9A3535"/>
<path d="M104.622 117.613C113.198 114.386 120.499 109.982 125.644 104.378V124.667C122.391 132.607 114.697 138.657 104.622 142.88V117.613Z" fill="#9A3535"/>
<path d="M22.9778 117.871C13.7463 114.648 5.75953 110.223 0 104.622V124.422C2.4791 133.131 11.1901 139.707 22.9778 144.052L22.9778 117.871Z" fill="#9A3535"/>
<path d="M25.4222 118.688L25.4222 144.907C47.8686 152.348 80.0182 152.202 102.178 143.852V118.489C79.4851 126.234 48.8774 126.174 25.4222 118.688Z" fill="#9A3535"/>
<path d="M0 73.5778C12.6274 85.8576 35.9608 92.4825 59.6444 93.1922V119.239C31.7006 118.702 4.69146 109.858 0 93.3778V73.5778Z" fill="#9A3535"/>
<path d="M125.644 73.3333C113.059 87.0407 87.5772 93.5698 62.0889 93.2444V119.265C90.1509 119.317 118.526 110.995 125.644 93.6222V73.3333Z" fill="#9A3535"/>
<path d="M0 42.2889C5.75953 47.8899 13.7463 52.3144 22.9778 55.5378L22.9778 81.7187C11.1901 77.3737 2.4791 70.7975 0 62.0889V42.2889Z" fill="#9A3535"/>
<path d="M102.178 56.1556C79.4851 63.901 48.8774 63.841 25.4222 56.3542L25.4222 82.5735C47.8686 90.0143 80.0182 89.8683 102.178 81.5186V56.1556Z" fill="#9A3535"/>
<path d="M104.622 55.2793C113.198 52.0527 120.499 47.6485 125.644 42.0444V62.3333C122.391 70.2737 114.697 76.3233 104.622 80.5468V55.2793Z" fill="#9A3535"/>
<path d="M207.012 67.0248C213.393 67.0248 219.041 68.7974 223.957 72.3425C228.92 75.8403 232.725 80.5435 235.372 86.452C238.067 92.3605 239.414 98.7653 239.414 105.666C239.414 112.615 238.09 119.067 235.443 125.023C232.844 130.978 229.133 135.705 224.312 139.203C219.538 142.654 214.007 144.379 207.721 144.379C199.874 144.379 192.619 141.141 185.954 134.665V143.244H149.368V126.086H162.273V53.4826H149.368V36.3952H185.954V77.3056C191.957 70.4518 198.976 67.0248 207.012 67.0248ZM200.489 125.944C205.026 125.944 208.572 124.077 211.124 120.343C213.724 116.562 215.024 111.551 215.024 105.312C215.024 99.1198 213.724 94.4166 211.124 91.2024C208.572 87.9409 205.074 86.3102 200.631 86.3102C195.998 86.3102 192.359 88.1536 189.712 91.8405C187.112 95.5274 185.812 100.42 185.812 106.517C185.812 112.237 187.136 116.916 189.783 120.556C192.477 124.148 196.046 125.944 200.489 125.944Z" fill="#9A3535"/>
<path d="M311.025 67.8757V90.2098C304.502 90.6352 299.302 91.6751 295.426 93.3295C291.598 94.9366 288.62 97.7254 286.493 101.696C284.413 105.666 283.373 111.339 283.373 118.712V126.086H298.192V143.244H245.937V126.086H259.621V86.1684H246.646V68.7265H281.388V87.6573C283.137 81.9379 286.375 77.1875 291.101 73.406C295.828 69.6246 301.689 67.7339 308.685 67.7339C309.725 67.7339 310.505 67.7811 311.025 67.8757Z" fill="#9A3535"/>
<path d="M356.048 47.5268C356.048 51.3082 354.748 54.4516 352.148 56.9568C349.596 59.4147 346.547 60.6437 343.002 60.6437C339.409 60.6437 336.313 59.3674 333.714 56.815C331.161 54.2152 329.885 51.1192 329.885 47.5268C329.885 43.9817 331.161 40.9329 333.714 38.3804C336.313 35.7807 339.409 34.4808 343.002 34.4808C346.547 34.4808 349.596 35.7807 352.148 38.3804C354.748 40.9329 356.048 43.9817 356.048 47.5268ZM365.619 126.086V143.244H319.604V126.086H330.948V86.1684H319.604V68.7265H354.559V126.086H365.619Z" fill="#9A3535"/>
<path d="M433.189 74.9659V68.7265H449.426V98.9307H432.622C428.651 90.7061 422.601 86.5938 414.471 86.5938C409.508 86.5938 405.395 88.4136 402.134 92.0532C398.92 95.6929 397.313 100.231 397.313 105.666C397.313 111.669 398.849 116.609 401.921 120.485C405.041 124.314 409.177 126.228 414.329 126.228C418.063 126.228 421.608 125.188 424.964 123.108C428.32 121.028 431.062 118.098 433.189 114.316L451.623 122.47C447.558 130.128 442.666 135.8 436.947 139.487C431.227 143.174 423.523 145.017 413.833 145.017C401.259 145.017 391.286 141.59 383.912 134.736C376.586 127.835 372.922 118.287 372.922 106.092C372.922 98.8125 374.6 92.2659 377.956 86.452C381.36 80.638 385.945 76.0767 391.711 72.7679C397.478 69.4119 403.788 67.7339 410.642 67.7339C418.489 67.7339 426.004 70.1445 433.189 74.9659Z" fill="#9A3535"/>
<path d="M503.098 126.866V143.244H458.359V126.086H470.271V53.4826H458.359V36.3952H494.094V126.866H503.098ZM503.807 68.7265H548.83V83.8286H541.456L519.477 102.476L539.4 126.086H549.681V143.244H526L494.236 103.894L519.477 83.1196H503.807V68.7265Z" fill="#9A3535"/>
</svg>
